<svg xmlns="http://www.w3.org/2000/svg" width="400" height="400" viewBox="0 0 400 400">
  <defs>
    <radialGradient id="glow" cx="50%" cy="50%" r="50%">
      <stop offset="0%" stop-color="rgba(255,165,0,0.4)"/>
      <stop offset="70%" stop-color="rgba(255,140,0,0.1)"/>
      <stop offset="100%" stop-color="transparent"/>
    </radialGradient>
    <radialGradient id="glow2" cx="50%" cy="50%" r="50%">
      <stop offset="0%" stop-color="rgba(255,200,100,0.35)"/>
      <stop offset="100%" stop-color="transparent"/>
    </radialGradient>
  </defs>
  <!-- Streak upper-left -->
  <ellipse cx="80" cy="60" rx="120" ry="100" fill="url(#glow)" opacity="0.9"/>
  <!-- Streak lower-right -->
  <ellipse cx="320" cy="340" rx="130" ry="110" fill="url(#glow2)" opacity="0.85"/>
  <!-- Scattered particles -->
  <circle cx="20" cy="30" r="1.2" fill="rgba(255,180,80,0.9)"/>
  <circle cx="120" cy="45" r="1" fill="rgba(255,165,0,0.8)"/>
  <circle cx="45" cy="120" r="1.5" fill="rgba(255,200,100,0.7)"/>
  <circle cx="180" cy="80" r="1" fill="rgba(255,140,0,0.6)"/>
  <circle cx="250" cy="150" r="1.2" fill="rgba(255,165,0,0.5)"/>
  <circle cx="300" cy="90" r="1" fill="rgba(255,190,90,0.7)"/>
  <circle cx="350" cy="200" r="1.3" fill="rgba(255,170,60,0.6)"/>
  <circle cx="380" cy="280" r="1" fill="rgba(255,160,50,0.8)"/>
  <circle cx="320" cy="360" r="1.5" fill="rgba(255,200,100,0.75)"/>
  <circle cx="260" cy="320" r="1" fill="rgba(255,140,0,0.6)"/>
  <circle cx="150" cy="350" r="1.2" fill="rgba(255,180,80,0.5)"/>
  <circle cx="80" cy="280" r="1" fill="rgba(255,165,0,0.65)"/>
  <circle cx="200" cy="220" r="1" fill="rgba(255,190,90,0.45)"/>
  <circle cx="50" cy="200" r="1.2" fill="rgba(255,150,50,0.55)"/>
  <circle cx="340" cy="120" r="1" fill="rgba(255,200,100,0.5)"/>
  <circle cx="100" cy="160" r="1" fill="rgba(255,165,0,0.7)"/>
  <circle cx="280" cy="260" r="1.2" fill="rgba(255,180,80,0.6)"/>
  <circle cx="160" cy="40" r="1" fill="rgba(255,140,0,0.55)"/>
  <circle cx="30" cy="340" r="1" fill="rgba(255,170,60,0.5)"/>
  <circle cx="370" cy="50" r="1.2" fill="rgba(255,190,90,0.6)"/>
</svg>
